<?xml version="1.0" standalone="no"?>
<!DOCTYPE svg PUBLIC "-//W3C//DTD SVG 20010904//EN"
 "http://www.w3.org/TR/2001/REC-SVG-20010904/DTD/svg10.dtd">
<svg version="1.0" xmlns="http://www.w3.org/2000/svg"
 width="1187.000000pt" height="1187.000000pt" viewBox="0 0 1187.000000 1187.000000"
 preserveAspectRatio="xMidYMid meet">
<g transform="translate(0.000000,1187.000000) scale(0.100000,-0.100000)"
fill="#007ACC" stroke="none">
<path d="M0 5935 l0 -5935 5935 0 5935 0 0 5935 0 5935 -5935 0 -5935 0 0
-5935z m9416 501 c407 -53 742 -249 1017 -597 86 -109 157 -216 157 -236 0
-18 -82 -77 -415 -298 -392 -259 -411 -271 -430 -255 -8 6 -54 64 -101 127
-176 233 -329 312 -603 313 -181 0 -300 -42 -401 -143 -90 -90 -125 -195 -118
-362 3 -93 6 -108 40 -177 89 -179 203 -256 718 -483 661 -292 966 -468 1198
-690 178 -171 286 -336 357 -547 153 -459 115 -990 -97 -1344 -233 -390 -650
-647 -1214 -749 -125 -22 -479 -31 -684 -16 -205 15 -368 47 -559 110 -433
143 -767 376 -1003 702 -92 126 -188 277 -188 295 0 15 36 36 540 328 284 164
357 203 365 192 6 -8 39 -56 75 -107 36 -52 110 -139 165 -194 184 -186 307
-260 524 -318 110 -29 126 -31 306 -30 162 0 201 3 265 20 255 71 409 192 461
364 18 60 21 89 17 188 -4 109 -7 124 -36 184 -90 183 -256 288 -902 572 -343
151 -552 258 -714 366 -283 188 -455 377 -589 644 -94 188 -121 295 -137 542
-23 345 15 574 135 814 166 332 441 571 815 709 106 39 274 80 372 90 120 13
522 4 664 -14z m-2640 -40 c1 0 4 -219 5 -486 l4 -485 -772 -3 -773 -2 0
-2195 0 -2195 -547 2 -548 3 -3 2193 -2 2192 -770 0 -770 0 0 459 c0 252 3
473 6 490 l6 31 477 3 c408 3 3683 -3 3687 -7z"/>
</g>
</svg>
