<?xml version="1.0" standalone="no"?>
<!DOCTYPE svg PUBLIC "-//W3C//DTD SVG 20010904//EN"
 "http://www.w3.org/TR/2001/REC-SVG-20010904/DTD/svg10.dtd">
<svg version="1.0" xmlns="http://www.w3.org/2000/svg"
 width="256.000000pt" height="256.000000pt" viewBox="0 0 256.000000 256.000000"
 preserveAspectRatio="xMidYMid meet">
<metadata>
Created by potrace 1.13, written by Peter Selinger 2001-2015
</metadata>
<g transform="translate(0.000000,256.000000) scale(0.100000,-0.100000)"
fill="#4184CC" stroke="none">
<path d="M1105 2455 c-77 -35 -174 -78 -215 -96 -41 -18 -103 -45 -137 -61
-34 -15 -91 -39 -125 -54 -198 -82 -385 -169 -402 -184 -17 -17 -18 -27 -7
-176 6 -88 18 -240 26 -339 9 -99 20 -238 26 -310 6 -71 14 -170 17 -219 6
-73 11 -91 29 -105 11 -9 98 -74 192 -146 l171 -130 0 -70 c1 -166 71 -299
211 -403 123 -91 249 -127 418 -120 225 10 416 121 509 295 39 75 53 128 61
237 l6 89 169 129 c93 70 172 131 175 134 6 5 21 173 40 444 13 182 40 493 50
580 5 45 4 83 -1 96 -6 13 -51 39 -131 74 -159 70 -345 151 -537 235 -85 38
-204 90 -264 117 -60 26 -117 48 -125 47 -9 0 -79 -29 -156 -64z m332 -104
c195 -90 482 -221 561 -256 44 -20 62 -33 60 -44 -2 -9 -91 -67 -198 -128
-509 -294 -579 -333 -597 -333 -11 0 -48 17 -84 38 -71 43 -182 108 -243 142
-34 19 -233 134 -413 239 -67 38 -77 55 -40 67 12 4 82 35 156 70 73 35 135
64 137 64 1 0 35 15 76 34 40 18 96 44 123 56 28 13 97 45 155 71 58 27 117
49 132 49 14 0 93 -31 175 -69z m-964 -598 c115 -73 258 -162 287 -178 10 -6
35 -23 56 -37 41 -29 187 -119 266 -165 l48 -28 0 -422 c0 -337 -3 -423 -13
-423 -11 0 -83 49 -137 94 -9 6 -38 27 -65 46 -28 18 -52 36 -55 40 -10 11
-164 126 -350 260 -63 45 -118 86 -123 89 -4 4 -12 79 -17 167 -5 87 -17 249
-25 359 -19 265 -19 265 3 265 10 0 66 -30 125 -67z m1713 -65 c-18 -291 -48
-653 -55 -658 -16 -9 -212 -154 -459 -338 -135 -100 -252 -182 -259 -182 -10
0 -13 58 -13 288 0 158 3 344 7 414 l6 127 261 163 c422 264 480 298 499 298
18 0 19 -7 13 -112z"/>
<path d="M1060 2212 c-102 -48 -233 -109 -290 -135 l-105 -48 60 -33 c33 -17
116 -64 184 -104 68 -40 125 -72 127 -72 1 0 52 -29 112 -64 l110 -64 224 125
c122 69 248 140 278 157 86 48 95 54 90 59 -13 12 -579 267 -591 266 -8 0 -97
-39 -199 -87z m311 29 c57 -27 129 -60 159 -74 176 -81 268 -126 274 -135 3
-6 -27 -28 -66 -50 -40 -22 -104 -56 -143 -77 -38 -21 -79 -44 -90 -52 -28
-19 -53 -16 -112 15 l-53 27 18 27 c9 14 45 60 79 102 45 54 56 73 40 67 -12
-5 -51 -21 -86 -35 -85 -36 -98 -24 -41 43 46 56 46 58 -2 36 -84 -37 -228
-95 -237 -95 -23 0 -9 26 36 72 l47 48 -42 17 c-23 10 -42 24 -42 31 0 11 127
79 151 81 3 1 53 -21 110 -48z m-254 -57 c24 -9 43 -22 43 -28 0 -6 -36 -47
-80 -91 -44 -43 -78 -80 -76 -82 2 -3 133 49 239 96 60 26 67 26 67 1 0 -11
-4 -20 -8 -20 -4 0 -24 -20 -44 -44 l-37 -44 51 20 c28 10 64 26 79 34 67 34
78 6 22 -58 -71 -81 -70 -72 -8 -104 30 -16 55 -36 55 -44 0 -10 -33 -33 -82
-59 l-83 -44 -85 50 c-152 88 -375 214 -417 235 -42 21 -27 41 55 77 42 19
118 54 167 78 50 24 92 43 95 43 2 0 24 -7 47 -16z"/>
</g>
</svg>
